<svg xmlns="http://www.w3.org/2000/svg" id="Add" viewBox="0 0 64 64">
  <path d="M38.15 16.74c0 3.39-2.75 9.32-6.15 9.32s-6.15-5.92-6.15-9.32a6.15 6.15 0 0 1 12.29 0ZM19.34 43.34a12.66 12.66 0 0 1 25.32 0M53.49 20.81c0 2.87-2.33 8-5.2 8s-5.2-5.17-5.2-8a5.2 5.2 0 0 1 10.41 0ZM41.81 34.94A10.72 10.72 0 0 1 59 43.49M10.51 20.81c0 2.87 2.33 8 5.2 8s5.2-5.17 5.2-8a5.2 5.2 0 0 0-10.41 0Z" fill="none" stroke="#a24ce6" stroke-linecap="round" stroke-linejoin="round" stroke-width="2px" class="colorStroke37a849 svgStroke"></path>
  <path d="M22.19 34.94A10.72 10.72 0 0 0 5 43.49M19.84 47a12.67 12.67 0 0 0 24.34 0" fill="none" stroke="#a24ce6" stroke-linecap="round" stroke-linejoin="round" stroke-width="2px" class="colorStroke37a849 svgStroke"></path>
  <line x1="32" x2="32" y1="38" y2="50" fill="none" stroke="#a24ce6" stroke-linecap="round" stroke-linejoin="round" stroke-width="2px" class="colorStroke37a849 svgStroke"></line>
  <line x1="26" x2="38" y1="44" y2="44" fill="none" stroke="#a24ce6" stroke-linecap="round" stroke-linejoin="round" stroke-width="2px" class="colorStroke37a849 svgStroke"></line>
</svg>
